<?xml version="1.0" encoding="utf-8"?>
<!-- Generator: Adobe Illustrator 16.0.2, SVG Export Plug-In . SVG Version: 6.00 Build 0)  -->
<!DOCTYPE svg PUBLIC "-//W3C//DTD SVG 1.1//EN" "http://www.w3.org/Graphics/SVG/1.1/DTD/svg11.dtd">
<svg version="1.1" id="Layer_1" xmlns="http://www.w3.org/2000/svg" xmlns:xlink="http://www.w3.org/1999/xlink" x="0px" y="0px"
	 width="612px" height="792px" viewBox="0 0 612 792" enable-background="new 0 0 612 792" xml:space="preserve">
<path fill="#FFFFFF" stroke="#F9F4F4" stroke-miterlimit="10" d="M359.819,318.919c0,0-13.083-1.167-14.333,5.917
	c0.166,0.083-1.25,5,4.75,10.417c0.083,0.083,8.083,5.167,8.333,8.417c0.167-0.167,0.583,6.167-9.75,4.167
	c0.25,0.167-3.417-1.25-2.75-5.167c-0.167,0-0.583-1.167,2.75-1.333c0.25-1.083,0.25-1.083,0.25-1.083l-13.583-0.167v1
	c0,0,3.834,0.167,3.75,1.75c-0.084,0,0,31.898,0,31.898s-3.167,5.083-4.584,5.333c2.167,1.167,2.167,1.167,2.167,1.167
	s7.25-4.167,7.5-8.417s0.833-22.776,0.833-22.776h1.25c0,0,10.167,3.11,14.834-4.057c0.083-0.083,3.083-7.249-0.75-10.915
	c-0.083,0.083-12.334-6.913-11.167-9.746c0.167,0.25-0.166-5,9.084-3.833c-0.084-0.167,3.584,1.75,2.5,3.833
	c0.083,0.583,0.083,0.583,0.083,0.583l1.083-0.083v-5.456C362.069,320.367,361.736,318.99,359.819,318.919z"/>
<path fill="#090947" stroke="#090947" stroke-miterlimit="10" d="M362.135,321.142c0,0,24.334,11.5,17.667,40.667
	c0,0.333-7.834,30.833-43.834,20.5c-0.333-0.667,8.375-7.136,8.5-9.011s0.5-23,0.5-23s20.375,5,17.125-11
	c-0.125-0.375-1.875-3.625-1.875-3.625l-6.25-4l-4.75-4c0,0-0.5-8.125,7.75-5.375c0.125-0.125,2.75,2.375,3.5,3.375s0.75,1,0.75,1
	l0.625-0.125L362.135,321.142z"/>
<path fill="#F70B0B" stroke="#F70B0B" stroke-miterlimit="10" d="M357.92,318.316c0,0-31.875-8.5-41.125,21.375
	c0.125,0.25-7.625,27.25,16.625,40c-0.5-0.25,3.375,0.625,5-5.5c0.25,0.25,0.75-31.75,0.75-31.75s0.375-1.25-3.625-1.25
	c-0.125-1.125-0.125-1.125-0.125-1.125l13.375-0.25l0.25,1c0,0-3.875,0.563-3.875,2.188c0,0.25,1.375,7.125,10.375,4.125
	c0,0.125,5.875-4.188,0.938-7.875c-0.25,0.25-17.063-8.854-9.521-16.854C346.837,322.4,348.295,318.316,357.92,318.316z"/>
</svg>
