<?xml version="1.0" encoding="utf-8"?>
<!-- Generator: Adobe Illustrator 16.0.2, SVG Export Plug-In . SVG Version: 6.00 Build 0)  -->
<!DOCTYPE svg PUBLIC "-//W3C//DTD SVG 1.1//EN" "http://www.w3.org/Graphics/SVG/1.1/DTD/svg11.dtd">
<svg version="1.1" id="Layer_1" xmlns="http://www.w3.org/2000/svg" xmlns:xlink="http://www.w3.org/1999/xlink" x="0px" y="0px"
	 width="612px" height="792px" viewBox="0 0 612 792" enable-background="new 0 0 612 792" xml:space="preserve">
<rect x="36.5" y="151.5" fill="#FFFFFF" stroke="#000000" stroke-miterlimit="10" width="556" height="362"/>
<path fill="#14E2F2" stroke="#14E2F2" stroke-miterlimit="10" d="M190.833,295.232c0,0-18.5,48.082,11.25,82.332
	c-0.5,0,16.75,6.988,33.917,1.822c-0.167-0.334,11.667-1.984,12.667-13.818s-9.667-22-10.167-21.833s-33-19.167-31.5-19.667
	c0,0-14.666-8.833-15.333-27.167c-0.5-2.667-0.5-2.667-0.5-2.667l-0.625,1.164"/>
<path fill="#14E2F2" stroke="#14E2F2" stroke-miterlimit="10" d="M256.009,271.473v13.5c0,0-37.375-13-45.875,3.75
	c-0.375,0.25-10.125,18.25,17.875,33.125c0,0.5,32.25,15.5,35.875,33.625c0,0.25,8.75,41.75-43.25,42
	c0.25,0.5,55.958,37.834,106.125-12.833c-0.333,0-17.167-0.999-23.667-13.833c0.333,0.666-11.833-21,12.667-43
	c-0.667-0.167-29-42.163,16.833-45.33c-0.5,0.167-51.667-68.993-121.167-11.827C211.259,270.983,231.925,263.806,256.009,271.473z"
	/>
<path fill="#14E2F2" stroke="#14E2F2" stroke-miterlimit="10" d="M326.202,291.477c0,0,23.75,6.167-3.5,28.542
	C322.827,319.894,304.327,294.811,326.202,291.477z"/>
<path fill="#14E2F2" stroke="#14E2F2" stroke-miterlimit="10" d="M323.626,335.858l20.374,24.5c0,0-6.374,13.75-8.124,14
	c-12,0.375-12.25,0-12.25,0S297.001,361.732,323.626,335.858z"/>
<g>
	<path fill="#14E2F2" d="M508.692,327.099c-12.333-93.001-91.917-80.92-91.917-80.92c-51.75,2-69.5,53.25-69.75,53.782
		c-8,20.782-18,24.218-18,24.218l21.666,25.92l0.666-20.667c0,0,0,0,12,0.17c1,11.837-5.666,32.163-5.666,32.163l14,16.943
		c0,0-14.334-0.609-14.666,0c50.334,61.275,109.332,23.057,109.332,23.057C511.691,373.765,509.025,327.432,508.692,327.099z
		 M460.43,361.461c0,0-6,49.251-63,23.251c0.75-13.25,0-13.918,0-13.918s42,25.418,47.5-9.083c1-78.5,1-78.5,1-78.5l-27.25,0.105
		v-11.605h41.75V361.461z"/>
	<path fill="#14E2F2" d="M508.692,327.099l0.495-0.066c-4.902-37.021-20.479-57.547-37.506-68.752
		c-17.021-11.207-35.435-13.115-46.041-13.116c-5.513,0-8.922,0.517-8.94,0.52l0.075,0.494l-0.021-0.5
		c-26.047,1.004-43.563,14.422-54.553,27.621c-5.498,6.601-9.376,13.15-11.896,18.086c-1.261,2.468-2.182,4.533-2.797,5.999
		c-0.307,0.733-0.537,1.316-0.694,1.726c-0.079,0.204-0.141,0.365-0.183,0.478l-0.051,0.132l-0.013,0.034l-0.002,0.005l0.264,0.11
		l-0.259-0.122l-0.005,0.011l0.264,0.11l-0.259-0.122l-0.009,0.016l-0.006,0.017c-3.979,10.335-8.44,16.324-11.885,19.726
		c-1.723,1.701-3.191,2.756-4.221,3.383c-0.517,0.313-0.922,0.52-1.193,0.647c-0.137,0.063-0.24,0.107-0.307,0.134l-0.074,0.029
		l-0.017,0.006l-0.688,0.236l22.974,27.484l0.708-21.978l-0.5-0.016l-0.007,0.5c0.002,0,0.002,0,1.5,0.021
		c1.5,0.021,4.5,0.064,10.5,0.149l0.007-0.5l-0.497,0.042c0.067,0.81,0.101,1.663,0.101,2.55c0.002,5.915-1.432,13.286-2.87,19.16
		c-0.719,2.938-1.438,5.504-1.977,7.334c-0.271,0.915-0.494,1.646-0.65,2.148c-0.157,0.502-0.246,0.771-0.246,0.772l-0.086,0.262
		l14.175,17.156l0.387-0.318l0.021-0.5c-0.004,0-6.374-0.271-10.738-0.271c-1.092,0-2.057,0.017-2.776,0.06
		c-0.361,0.022-0.66,0.05-0.897,0.09c-0.12,0.021-0.224,0.043-0.329,0.08l-0.17,0.08c-0.063,0.04-0.143,0.096-0.215,0.222
		l-0.162,0.296l0.215,0.261c22.475,27.371,46.768,35.021,66.761,35.014c24.942-0.005,43.187-11.83,43.229-11.855l-0.271-0.419
		l0.263,0.425c19.59-12.097,30.28-27.624,36.056-41.407c5.778-13.786,6.654-25.825,6.655-31.017c0-0.846-0.023-1.51-0.053-1.975
		c-0.016-0.233-0.031-0.416-0.05-0.553l-0.027-0.181l-0.024-0.094c-0.021-0.042-0.01-0.081-0.131-0.218L508.692,327.099l0.495-0.066
		L508.692,327.099l-0.354,0.354l0.32-0.321l-0.434,0.142c0.016,0.021-0.003,0.048,0.112,0.179l0.32-0.321l-0.434,0.142l0.229-0.075
		l-0.234,0.06l0.005,0.015l0.229-0.075l-0.234,0.06l0.002,0.011c0.018,0.082,0.047,0.373,0.068,0.794
		c0.021,0.425,0.039,0.998,0.039,1.702c0.001,5.085-0.865,17.006-6.577,30.63c-5.714,13.626-16.261,28.96-35.659,40.944
		l-0.004,0.002l-0.005,0.004c-0.001,0-0.065,0.041-0.202,0.126c-2.043,1.271-19.402,11.571-42.484,11.567
		c-19.738-0.008-43.67-7.49-65.987-34.648l-0.386,0.317l0.438,0.24l-0.347-0.189l0.209,0.338c0.023-0.017,0.08-0.048,0.138-0.149
		l-0.347-0.189l0.209,0.338l-0.114-0.186l0.091,0.199l0.023-0.013l-0.114-0.186l0.091,0.199l-0.008-0.017l0.008,0.018v-0.001
		l-0.008-0.017l0.008,0.018c0.023-0.011,0.181-0.046,0.392-0.068c0.646-0.074,1.856-0.105,3.28-0.105
		c2.164,0,4.841,0.068,6.974,0.135c2.133,0.068,3.719,0.135,3.723,0.135l1.122,0.048l-14.715-17.809l-0.386,0.318l0.476,0.156
		c0.003-0.008,1.448-4.416,2.895-10.329c1.446-5.916,2.897-13.33,2.898-19.398c0-0.911-0.032-1.792-0.104-2.634l-0.037-0.452
		l-0.453-0.006c-6-0.085-9-0.127-10.5-0.148c-1.498-0.021-1.498-0.021-1.5-0.021l-0.491-0.007l-0.64,19.847l-20.826-24.914
		l-0.383,0.321l0.161,0.473c0.133-0.038,10.269-3.614,18.306-24.511l-0.467-0.18l0.451,0.212l0.039-0.095
		c0.198-0.518,1.458-3.977,4.04-8.934c3.871-7.431,10.704-18.193,21.305-27.266c10.603-9.073,24.954-16.464,43.935-17.2l0.028-0.001
		l0.026-0.004c0,0,0.201-0.03,0.6-0.078c1.191-0.143,4.104-0.43,8.191-0.43c10.491-0.001,28.71,1.897,45.491,12.951
		c16.778,11.057,32.177,31.248,37.063,68.048l0.021,0.168l0.12,0.12L508.692,327.099z M460.43,361.461l-0.496-0.061
		c0,0-0.014,0.11-0.048,0.331c-0.252,1.652-1.638,9.212-6.393,16.309c-2.377,3.55-5.591,6.984-9.923,9.532
		c-4.334,2.547-9.79,4.217-16.693,4.218c-7.771,0-17.384-2.125-29.24-7.533l-0.207,0.455l0.499,0.028
		c0.251-4.423,0.334-7.45,0.334-9.525c0-2.076-0.083-3.198-0.171-3.827c-0.045-0.315-0.091-0.507-0.137-0.644
		c-0.049-0.135-0.088-0.224-0.193-0.324l-0.332,0.374l-0.259,0.428c0.015,0.008,3.758,2.274,9.17,4.543
		c5.412,2.268,12.487,4.546,19.208,4.549c4.558,0.001,8.974-1.058,12.533-3.932c3.563-2.874,6.219-7.536,7.342-14.593l0.005-0.036
		l0.001-0.036c0.5-39.25,0.75-58.875,0.875-68.688c0.063-4.906,0.095-7.359,0.109-8.586c0.016-1.225,0.016-1.225,0.016-1.227
		l0.008-0.508l-27.258,0.105v-10.604h40.75v89.25h0.5l-0.496-0.061L460.43,361.461h0.5v-90.25h-42.75v12.607l27.752-0.107
		l-0.002-0.5l-0.5-0.006c0,0,0,0-1,78.5l0.5,0.006l-0.494-0.079c-1.101,6.891-3.649,11.281-6.98,13.972
		c-3.332,2.69-7.495,3.709-11.905,3.71c-6.495,0.003-13.479-2.229-18.821-4.471c-2.673-1.12-4.937-2.242-6.528-3.082
		c-0.797-0.42-1.426-0.77-1.855-1.014c-0.214-0.122-0.379-0.218-0.488-0.283c-0.11-0.065-0.165-0.098-0.165-0.098l-0.593,0.801
		l0.281-0.315l-0.369,0.208l0.088,0.107l0.281-0.315l-0.369,0.208l0.143-0.08l-0.149,0.066l0.008,0.014l0.143-0.08l-0.149,0.066
		c0.003,0,0.081,0.213,0.144,0.833c0.063,0.622,0.118,1.656,0.118,3.336c0,2.048-0.083,5.059-0.332,9.469l-0.02,0.341l0.312,0.142
		c11.95,5.451,21.698,7.622,29.654,7.623c7.535,0.001,13.462-1.954,18.082-4.895c6.934-4.414,10.917-11.012,13.174-16.489
		c2.256-5.48,2.789-9.855,2.793-9.884l0.004-0.03v-0.03L460.43,361.461L460.43,361.461z"/>
</g>
</svg>
