<?xml version="1.0" encoding="utf-8"?>
<!-- Generator: Adobe Illustrator 16.0.2, SVG Export Plug-In . SVG Version: 6.00 Build 0)  -->
<!DOCTYPE svg PUBLIC "-//W3C//DTD SVG 1.1//EN" "http://www.w3.org/Graphics/SVG/1.1/DTD/svg11.dtd">
<svg version="1.1" id="Layer_1" xmlns="http://www.w3.org/2000/svg" xmlns:xlink="http://www.w3.org/1999/xlink" x="0px" y="0px"
	 width="612px" height="792px" viewBox="0 0 612 792" enable-background="new 0 0 612 792" xml:space="preserve">
<path fill="#113DF4" stroke="#113DF4" stroke-miterlimit="10" d="M130.833,102.232c0,0-18.5,48.082,11.25,82.332
	c-0.5,0,16.75,6.988,33.917,1.822c-0.167-0.334,11.667-1.984,12.667-13.818s-9.667-22-10.167-21.833s-33-19.167-31.5-19.667
	c0,0-14.666-8.833-15.333-27.167c-0.5-2.667-0.5-2.667-0.5-2.667l-0.625,1.164"/>
<path fill="#113DF4" stroke="#113DF4" stroke-miterlimit="10" d="M196.009,78.473v13.5c0,0-37.375-13-45.875,3.75
	c-0.375,0.25-10.125,18.25,17.875,33.125c0,0.5,32.25,15.5,35.875,33.625c0,0.25,8.75,41.75-43.25,42
	c0.25,0.5,55.958,37.834,106.125-12.833c-0.333,0-17.167-0.999-23.667-13.833c0.333,0.666-11.833-21,12.667-43
	c-0.667-0.167-29-42.163,16.833-45.33c-0.5,0.167-51.667-68.993-121.167-11.827C151.259,77.983,171.925,70.806,196.009,78.473z"/>
<path fill="#113DF4" stroke="#113DF4" stroke-miterlimit="10" d="M266.202,98.477c0,0,23.75,6.167-3.5,28.542
	C262.827,126.894,244.327,101.811,266.202,98.477z"/>
<path fill="#113DF4" stroke="#113DF4" stroke-miterlimit="10" d="M263.626,142.858l20.374,24.5c0,0-6.374,13.75-8.124,14
	c-12,0.375-12.25,0-12.25,0S237.001,168.732,263.626,142.858z"/>
<path fill="#113DF4" stroke="#113DF4" stroke-miterlimit="10" d="M269.025,131.179c0,0,10-3.436,18-24.218
	c0.25-0.532,18-51.782,69.75-53.782c0,0,79.584-12.081,91.917,80.92c0.333,0.333,2.999,46.666-42.334,74.666
	c0,0-58.999,38.219-109.333-23.057c0.333-0.609,14.667,0,14.667,0l-14-16.943c0,0,6.666-20.326,5.666-32.163
	c-12-0.17-12-0.17-12-0.17l-0.666,20.667L269.025,131.179z"/>
<path fill="#840F0F" stroke="#840F0F" stroke-miterlimit="10" d="M358.679,78.711h41.75v89.75c0,0-6,49.251-63,23.251
	c0.75-13.25,0-13.918,0-13.918s42,25.418,47.5-9.083c1-78.5,1-78.5,1-78.5l-27.25,0.106V78.711z"/>
</svg>
