<?xml version="1.0" encoding="utf-8"?>
<!-- Generator: Adobe Illustrator 16.0.2, SVG Export Plug-In . SVG Version: 6.00 Build 0)  -->
<!DOCTYPE svg PUBLIC "-//W3C//DTD SVG 1.1//EN" "http://www.w3.org/Graphics/SVG/1.1/DTD/svg11.dtd">
<svg version="1.1" id="Layer_1" xmlns="http://www.w3.org/2000/svg" xmlns:xlink="http://www.w3.org/1999/xlink" x="0px" y="0px"
	 width="612px" height="792px" viewBox="0 0 612 792" enable-background="new 0 0 612 792" xml:space="preserve">
<g>
	<path fill="#FFFFFF" stroke="#F9F4F4" stroke-miterlimit="10" d="M353.066,178.535c0,0-62.735-5.596-68.729,28.371
		c0.797,0.401-5.993,23.978,22.777,49.951c0.399,0.398,38.759,24.774,39.958,40.358c0.801-0.798,2.796,29.57-46.754,19.979
		c1.2,0.802-16.384-5.994-13.186-24.773c-0.801,0-2.796-5.597,13.186-6.395c1.2-5.193,1.2-5.193,1.2-5.193l-65.132-0.801v4.795
		c0,0,18.384,0.799,17.981,8.393c-0.402,0,0,152.954,0,152.954s-15.186,24.374-21.981,25.573
		c10.392,5.596,10.392,5.596,10.392,5.596s34.765-19.98,35.964-40.36c1.197-20.379,3.994-109.214,3.994-109.214h5.993
		c0,0,48.753,14.914,71.132-19.452c0.397-0.399,14.783-34.758-3.598-52.339c-0.398,0.4-59.143-33.147-53.548-46.734
		c0.802,1.198-0.794-23.978,43.561-18.383c-0.403-0.798,17.187,8.392,11.988,18.383c0.396,2.798,0.396,2.798,0.396,2.798
		l5.193-0.401v-26.16C363.854,185.48,362.258,178.875,353.066,178.535z"/>
	<path fill="#090947" stroke="#070756" stroke-miterlimit="10" d="M364.169,189.196c0,0,116.685,55.142,84.716,195.001
		c0,1.599-37.564,147.849-210.19,98.3c-1.596-3.195,40.16-34.219,40.759-43.209c0.6-8.991,2.397-110.289,2.397-110.289
		s97.701,23.976,82.117-52.746c-0.599-1.798-8.991-17.382-8.991-17.382l-29.97-19.181l-22.776-19.18c0,0-2.397-38.96,37.163-25.774
		c0.599-0.6,13.187,11.388,16.781,16.184c3.597,4.795,3.597,4.795,3.597,4.795l2.997-0.599L364.169,189.196z"/>
	<path fill="#F70B0B" stroke="#D10F0F" stroke-miterlimit="10" d="M343.958,175.646c0,0-152.845-40.758-197.2,102.496
		c0.599,1.199-36.563,130.667,79.719,191.806c-2.397-1.199,16.184,2.997,23.976-26.373c1.198,1.197,3.596-152.246,3.596-152.246
		s1.798-5.994-17.382-5.994c-0.6-5.395-0.6-5.395-0.6-5.395l64.135-1.199l1.2,4.795c0,0-18.582,2.698-18.582,10.489
		c0,1.2,6.594,34.166,49.75,19.781c0,0.599,28.17-20.08,4.495-37.762c-1.198,1.198-81.817-42.457-45.652-80.818
		C290.813,195.227,297.806,175.646,343.958,175.646z"/>
</g>
</svg>
