<?xml version="1.0" encoding="utf-8"?>
<!-- Generator: Adobe Illustrator 16.0.2, SVG Export Plug-In . SVG Version: 6.00 Build 0)  -->
<!DOCTYPE svg PUBLIC "-//W3C//DTD SVG 1.1//EN" "http://www.w3.org/Graphics/SVG/1.1/DTD/svg11.dtd">
<svg version="1.1" id="Layer_1" xmlns="http://www.w3.org/2000/svg" xmlns:xlink="http://www.w3.org/1999/xlink" x="0px" y="0px"
	 width="159px" height="46px" viewBox="0 0 159 46" enable-background="new 0 0 159 46" xml:space="preserve">
<text transform="matrix(1.199 0 0 1 2.0005 28.6836)" fill="#C86F1D" stroke="#1C3070" font-family="'Purisa-Bold'" font-size="11.8313">MICKEY MOUSE</text>
<path fill="#121211" stroke="#831381" stroke-miterlimit="10" d="M130.749,19.731c-1.586,2.967-0.902,9.276-0.858,9.208
	c-0.089,5.931,4.646,10.967,4.646,10.967s0,0,1.299,1.032c4.449,6.486,7.93-0.414,7.93-0.344c0.594,0.035,2.906-3.034,2.906-3.034
	s0,0,1.145-2.516c3.038-6.865,1.277-13.517,1.277-13.517s0,0-0.683-2.344c3.743,1.689,5.418-2.312,5.418-2.312s0,0,0.594-1.758
	c0.969-2.966-0.572-7.07-0.572-7.07c-0.728-1.965-1.782-6.311-6.276-5.708c-4.493,0.604-4.14,8.088-4.14,8.088s0,0,0.396,2.344
	c-3.744-3.172-8.723-0.275-8.368-0.414c0.351-0.138,0.482-4,0.482-4c-1.408-5.38-3.347-5.794-4.096-5.862
	c-0.748-0.069-3.126-1.104-5.725,3.241c-2.6,4.346-1.938,7.933-0.705,11.38c1.15,3.217,4.867,2.534,5.362,2.426
	c0.037-0.007,0.055-0.011,0.055-0.011"/>
<path fill="#FCFCFC" stroke="#0B0A0A" stroke-miterlimit="10" d="M133.423,26.473l-0.06-0.157l-0.114-0.297l-0.024-0.063
	c0,0-2.512-8.535,2.147-12.259c-0.033,0.104,2.741-1.552,3.964,3c0.131,0,0.793-5.742,4.856-2.38
	c0.165,0.258,3.567,4.292,1.321,11.277c-0.23,1.034-0.362,0.877-0.362,0.877s2.773-3.98,3.55,1.502
	c-0.132,2.095-0.132,2.095-0.132,2.095s-0.364,3.725-2.626,7.087c0,0.182-2.016,2.459-2.016,2.459l0.628-1.76
	c0,0-2.099,3.464-2.379,3.62s-3.685,4.372-7.332-2.588c-0.679-1.06-0.679-1.06-0.679-1.06l0.661,1.837c0,0-4.129-4.371-4.525-9.079
	c-0.05-0.103-0.612-2.509-0.299-3.464c0.033,0.101,1.127-4.962,3.252-0.594c0.028,0.059,0.057,0.119,0.086,0.179L133.423,26.473z"/>
<path stroke="#0F0F0E" stroke-miterlimit="10" d="M146.591,28.355c0,0,1.744-1.475,1.678,1.292
	C148.262,29.637,147.923,28.396,146.591,28.355z"/>
<path fill="#11100F" stroke="#0F0F0E" stroke-miterlimit="10" d="M147.308,28.721l0.123,0.101c0,0-1.239,3.648-1.452,3.778
	c-0.108-0.144-0.799,4.354-3.242,7.01c-0.046,0.102-3.063,4.379-6.653-0.14c0.023,0.069-2.179-2.655-3.126-6.93
	c-0.903-2.104-0.903-2.104-0.903-2.104l-0.527-1.614c0,0-0.314,0.027-0.513,0.649c0.05,0.025-0.148,0.258-0.148,0.258
	s-0.115-2.897,1.553-1.267c0.016,0.102-0.612,0.309-0.612,0.309s1.024,4.305,3.502,5.979c-0.017,0.021,4.84,5.143,10.076-1.971
	c0.049,0.027,2.536-5.399,1.872-3.958"/>
<path fill="#9B1C15" stroke="#0F0F0E" stroke-miterlimit="10" d="M145.509,33.522c0,0-1.651,1.759-2.675,2.432
	c-1.025,0.671-4.525,2.432-8.159-1.215c0.031,0.077-1.257-1.268-1.091-1.217c0.165,0.053-0.331,0.517,1.486,3.931
	c1.816,3.416,5.781,7.242,9.612-1.552c0.034-0.104,0.826-2.017,0.826-2.017V33.522z"/>
<path fill="#F2130B" stroke="#000000" stroke-miterlimit="10" d="M142.932,39.398c0.043,0.067,0.374-2.519-3.084-0.552
	c-0.021,0.068-4.118-3.172-2.709,1.379c0.044,0,0.902,0.932,1.365,1.034c2.379,0.035,2.379,0.035,2.379,0.035
	s2.004-1.242,1.827-1.586C142.932,39.398,142.932,39.398,142.932,39.398z"/>
<path fill="#F6F5F4" stroke="#FFFFFF" stroke-miterlimit="10" d="M139.148,39.751c0,0-0.877-0.181-1.413-1.071
	c0,0.025-1.025-0.558,0,1.163c0.43,0.466,0.43,0.466,0.43,0.466s0.816,0.389,0.883,0C139.098,40.204,139.148,39.751,139.148,39.751z
	"/>
<path stroke="#0E0E0D" stroke-miterlimit="10" d="M141.626,29.552c0,0,0.483,1.896-0.904,2.274
	c-1.387,0.379-1.211,0.172-1.211,0.172s-1.254,0.367-2.048-1.193c-0.065,0.022-0.704-2.048,1.145-2.53
	c0.023-0.103,0.881-0.552,2.424,0.346c0.198,0.137,0.549,0.518,0.572,0.722"/>
<path fill="#FEFDFD" stroke="#FEFDFD" stroke-miterlimit="10" d="M140.441,29.78c0,0-2.115-0.138-2.182,0
	c-0.066,0.139,0.661-2.276,2.182-0.345C140.551,29.712,140.441,29.78,140.441,29.78z"/>
<path stroke="#000000" stroke-miterlimit="10" d="M140.49,23.046c0,0,0.066-2.275,0.991-3.051c-0.017,0.026,0.809-0.905,1.171,2.691
	c0.035,3.18,0,2.869,0,2.869s-0.296,2.018-0.577,2.095c-0.396-0.413-0.396-0.413-0.396-0.413s-0.728-0.62-0.959-0.518
	c-0.182-1.137-0.182-1.137-0.182-1.137s1.57-1.113,1.668-1.216c0.101-0.103,0.101-0.103,0.101-0.103l-1.751-1.081"/>
<path stroke="#000000" stroke-miterlimit="10" d="M139.104,26.47l0.199-3.308c0,0,0.098-2.177-0.959-3.004
	c0,0.207-0.925-1.086-1.224,2.689c0.101,0.36,1.752,1.138,1.687,1.19c-0.066,0.052-1.453,1.345-1.453,1.345l-0.233,0.207
	l0.497,1.862L139.104,26.47z"/>
<path stroke="#000000" stroke-miterlimit="10" d="M143.458,29.434c0,0-3.523-5.483-7.555,0c-0.021,0-0.131,0-0.131,0
	s0.858-1.552,1.674-1.93c0,0,1.806-1.864,4.712,0.068c0.022-0.034,1.653,1.861,1.607,1.861
	C143.458,29.434,143.458,29.434,143.458,29.434z"/>
</svg>
