<?xml version="1.0" encoding="utf-8"?>
<!-- Generator: Adobe Illustrator 16.0.2, SVG Export Plug-In . SVG Version: 6.00 Build 0)  -->
<!DOCTYPE svg PUBLIC "-//W3C//DTD SVG 1.1//EN" "http://www.w3.org/Graphics/SVG/1.1/DTD/svg11.dtd">
<svg version="1.1" id="Layer_1" xmlns="http://www.w3.org/2000/svg" xmlns:xlink="http://www.w3.org/1999/xlink" x="0px" y="0px"
	 width="159px" height="47px" viewBox="0 0 159 47" enable-background="new 0 0 159 47" xml:space="preserve">
<text transform="matrix(1 0 0 1 5.0381 26.5156)" fill="#E8DFE7" font-family="'STIX-Bold'" font-size="14">MICKEY MOUSE</text>
<path fill="#121211" stroke="#831381" stroke-miterlimit="10" d="M128.807,19.512c-1.701,2.096-0.969,6.555-0.922,6.506
	c-0.095,4.19,4.986,7.746,4.986,7.746s0,0,1.394,0.731c4.773,4.581,8.507-0.292,8.507-0.243c0.639,0.023,3.119-2.144,3.119-2.144
	s0,0,1.229-1.778c3.262-4.85,1.371-9.549,1.371-9.549s0,0-0.732-1.656c4.017,1.193,5.813-1.633,5.813-1.633s0,0,0.639-1.242
	c1.039-2.096-0.615-4.995-0.615-4.995c-0.779-1.389-1.914-4.458-6.734-4.032s-4.442,5.713-4.442,5.713s0,0,0.425,1.657
	c-4.016-2.241-9.357-0.194-8.979-0.292c0.378-0.098,0.52-2.826,0.52-2.826c-1.512-3.801-3.592-4.094-4.395-4.143
	c-0.804-0.049-3.355-0.779-6.145,2.291c-2.787,3.069-2.079,5.604-0.756,8.04c1.234,2.272,5.223,1.79,5.754,1.714
	c0.039-0.006,0.059-0.009,0.059-0.009"/>
<path fill="#FCFCFC" stroke="#0B0A0A" stroke-miterlimit="10" d="M131.676,24.274l-0.064-0.11l-0.123-0.21l-0.025-0.046
	c0,0-2.694-6.029,2.304-8.66c-0.036,0.072,2.942-1.098,4.253,2.119c0.143,0,0.852-4.057,5.211-1.682
	c0.178,0.184,3.828,3.033,1.418,7.967c-0.248,0.731-0.391,0.621-0.391,0.621s2.978-2.813,3.811,1.061
	c-0.142,1.48-0.142,1.48-0.142,1.48s-0.39,2.631-2.817,5.006c0,0.129-2.162,1.736-2.162,1.736l0.673-1.242
	c0,0-2.251,2.448-2.552,2.559c-0.301,0.109-3.952,3.088-7.869-1.828c-0.727-0.749-0.727-0.749-0.727-0.749l0.709,1.298
	c0,0-4.431-3.088-4.855-6.414c-0.054-0.073-0.656-1.772-0.319-2.449c0.035,0.072,1.209-3.504,3.489-0.418
	c0.029,0.041,0.061,0.083,0.09,0.126L131.676,24.274z"/>
<path stroke="#0F0F0E" stroke-miterlimit="10" d="M145.806,25.604c0,0,1.87-1.042,1.8,0.913
	C147.596,26.51,147.232,25.632,145.806,25.604z"/>
<path fill="#11100F" stroke="#0F0F0E" stroke-miterlimit="10" d="M146.573,25.861l0.134,0.072c0,0-1.33,2.578-1.561,2.669
	c-0.115-0.101-0.856,3.075-3.479,4.952c-0.047,0.072-3.284,3.094-7.136-0.098c0.023,0.049-2.34-1.877-3.355-4.897
	c-0.969-1.486-0.969-1.486-0.969-1.486l-0.567-1.14c0,0-0.337,0.02-0.55,0.457c0.054,0.02-0.159,0.184-0.159,0.184
	s-0.124-2.047,1.666-0.896c0.018,0.073-0.655,0.22-0.655,0.22s1.098,3.041,3.757,4.225c-0.019,0.014,5.192,3.633,10.811-1.393
	c0.054,0.018,2.722-3.816,2.008-2.797"/>
<path fill="#9B1C15" stroke="#0F0F0E" stroke-miterlimit="10" d="M144.644,29.255c0,0-1.772,1.243-2.871,1.718
	s-4.856,1.718-8.755-0.859c0.035,0.056-1.347-0.895-1.17-0.858c0.178,0.036-0.354,0.366,1.596,2.778
	c1.949,2.411,6.203,5.115,10.314-1.098c0.035-0.072,0.886-1.425,0.886-1.425V29.255z"/>
<path fill="#F2130B" stroke="#000000" stroke-miterlimit="10" d="M141.877,33.406c0.048,0.049,0.402-1.779-3.308-0.391
	c-0.023,0.049-4.419-2.241-2.906,0.975c0.047,0,0.969,0.658,1.465,0.731c2.552,0.024,2.552,0.024,2.552,0.024
	s2.15-0.877,1.961-1.121C141.877,33.406,141.877,33.406,141.877,33.406z"/>
<path fill="#F6F5F4" stroke="#FFFFFF" stroke-miterlimit="10" d="M137.817,33.656c0,0-0.938-0.127-1.515-0.758
	c0,0.018-1.1-0.393,0,0.822c0.461,0.328,0.461,0.328,0.461,0.328s0.877,0.274,0.947,0C137.764,33.977,137.817,33.656,137.817,33.656
	z"/>
<path stroke="#0E0E0D" stroke-miterlimit="10" d="M140.477,26.449c0,0,0.52,1.34-0.969,1.607s-1.301,0.121-1.301,0.121
	s-1.346,0.26-2.197-0.844c-0.07,0.016-0.756-1.445,1.229-1.787c0.023-0.073,0.944-0.39,2.599,0.244
	c0.213,0.098,0.592,0.365,0.615,0.512"/>
<path fill="#FEFDFD" stroke="#FEFDFD" stroke-miterlimit="10" d="M139.205,26.611c0,0-2.268-0.098-2.339,0s0.709-1.608,2.339-0.244
	C139.324,26.563,139.205,26.611,139.205,26.611z"/>
<path stroke="#000000" stroke-miterlimit="10" d="M139.258,21.854c0,0,0.071-1.607,1.063-2.156c-0.018,0.019,0.868-0.639,1.259,1.9
	c0.035,2.248,0,2.029,0,2.029s-0.319,1.425-0.621,1.479c-0.425-0.292-0.425-0.292-0.425-0.292s-0.78-0.439-1.028-0.365
	c-0.195-0.805-0.195-0.805-0.195-0.805s1.684-0.785,1.791-0.859c0.105-0.072,0.105-0.072,0.105-0.072l-1.878-0.764"/>
<path stroke="#000000" stroke-miterlimit="10" d="M137.771,24.271l0.213-2.336c0,0,0.105-1.538-1.028-2.123
	c0,0.146-0.992-0.768-1.312,1.9c0.106,0.256,1.879,0.805,1.809,0.841c-0.071,0.036-1.561,0.95-1.561,0.95l-0.248,0.146l0.531,1.315
	L137.771,24.271z"/>
<path stroke="#000000" stroke-miterlimit="10" d="M142.443,26.366c0,0-3.781-3.874-8.105,0c-0.023,0-0.143,0-0.143,0
	s0.922-1.097,1.797-1.364c0,0,1.938-1.315,5.057,0.049c0.023-0.024,1.771,1.315,1.725,1.315
	C142.443,26.366,142.443,26.366,142.443,26.366z"/>
</svg>
