<?xml version="1.0" encoding="utf-8"?>
<!-- Generator: Adobe Illustrator 16.0.2, SVG Export Plug-In . SVG Version: 6.00 Build 0)  -->
<!DOCTYPE svg PUBLIC "-//W3C//DTD SVG 1.1//EN" "http://www.w3.org/Graphics/SVG/1.1/DTD/svg11.dtd">
<svg version="1.1" id="Layer_1" xmlns="http://www.w3.org/2000/svg" xmlns:xlink="http://www.w3.org/1999/xlink" x="0px" y="0px"
	 width="300px" height="300px" viewBox="0 0 300 300" enable-background="new 0 0 300 300" xml:space="preserve">
<path fill="#121211" stroke="#831381" stroke-miterlimit="10" d="M77.517,135.595c-12,14.334-6.833,44.834-6.5,44.5
	c-0.667,28.668,35.167,52.996,35.167,52.996s0,0,9.833,5c33.667,31.334,60-2,60-1.666c4.5,0.166,22-14.662,22-14.662
	s0,0,8.666-12.168c23-33.166,9.668-65.316,9.668-65.316s0,0-5.168-11.333c28.333,8.167,40.999-11.167,40.999-11.167s0,0,4.5-8.5
	c7.334-14.333-4.332-34.166-4.332-34.166c-5.5-9.5-13.499-30.501-47.501-27.587c-34,2.914-31.332,39.086-31.332,39.086s0,0,3,11.333
	c-28.334-15.333-66-1.332-63.334-1.999s3.667-19.333,3.667-19.333c-10.667-26-25.333-28-31-28.333s-23.667-5.333-43.333,15.667
	s-14.667,38.333-5.333,55c8.705,15.544,36.834,12.242,40.585,11.726c0.271-0.037,0.415-0.059,0.415-0.059"/>
<path fill="#FCFCFC" stroke="#0B0A0A" stroke-miterlimit="10" d="M98.752,168.173l-0.452-0.752l-0.862-1.438l-0.186-0.311
	c0,0-19-41.25,16.25-59.25c-0.25,0.5,20.75-7.5,30,14.5c1,0,6-27.75,36.75-11.5c1.25,1.25,27,20.75,10,54.5
	c-1.75,5-2.75,4.25-2.75,4.25s21-19.25,26.875,7.25c-1,10.125-1,10.125-1,10.125s-2.75,18-19.875,34.25
	c0,0.875-15.25,11.875-15.25,11.875l4.75-8.5c0,0-15.875,16.75-18,17.5s-27.875,21.125-55.5-12.5
	c-5.125-5.125-5.125-5.125-5.125-5.125l5,8.875c0,0-31.25-21.125-34.25-43.875c-0.375-0.5-4.625-12.125-2.25-16.75
	c0.247,0.494,8.529-23.973,24.607-2.861c0.213,0.279,0.427,0.566,0.643,0.861L98.752,168.173z"/>
<path stroke="#080808" stroke-miterlimit="10" d="M197.418,177.273c0,0,13.188-7.125,12.688,6.25
	C210.043,183.461,207.48,177.461,197.418,177.273z"/>
<path fill="#11100F" stroke="#080808" stroke-miterlimit="10" d="M202.831,179.03l0.938,0.49c0,0-9.375,17.635-11,18.26
	c-0.813-0.688-6.042,21.043-24.542,33.875c-0.333,0.5-23.166,21.168-50.333-0.666c0.167,0.332-16.501-12.834-23.667-33.501
	c-6.833-10.167-6.833-10.167-6.833-10.167l-4-7.801c0,0-2.375,0.135-3.875,3.135c0.375,0.125-1.125,1.25-1.125,1.25
	s-0.875-14,11.75-6.125c0.125,0.5-4.625,1.5-4.625,1.5s7.75,20.801,26.5,28.9c-0.125,0.1,36.625,24.85,76.25-9.525
	c0.375,0.125,19.201-26.104,14.163-19.135"/>
<path fill="#9B1C15" stroke="#080808" stroke-miterlimit="10" d="M189.221,202.245c0,0-12.5,8.5-20.25,11.75
	s-34.25,11.75-61.75-5.875c0.25,0.375-9.5-6.125-8.25-5.875s-2.5,2.5,11.25,19s43.75,35,72.75-7.5c0.25-0.5,6.25-9.75,6.25-9.75
	V202.245z"/>
<path fill="#F2130B" stroke="#000000" stroke-miterlimit="10" d="M169.711,230.64c0.332,0.333,2.832-12.167-23.334-2.667
	c-0.166,0.333-31.166-15.333-20.5,6.667c0.333,0,6.833,4.5,10.333,5c18,0.167,18,0.167,18,0.167s15.166-6,13.832-7.667
	C169.711,230.64,169.711,230.64,169.711,230.64z"/>
<path fill="#F6F5F4" stroke="#FFFFFF" stroke-miterlimit="10" d="M141.075,232.354c0,0-6.625-0.875-10.688-5.188
	c0,0.125-7.75-2.688,0,5.625c3.25,2.25,3.25,2.25,3.25,2.25s6.188,1.875,6.688,0C140.7,234.542,141.075,232.354,141.075,232.354z"/>
<path stroke="#0E0E0D" stroke-miterlimit="10" d="M159.828,183.046c0,0,3.666,9.167-6.834,11c-10.5,1.833-9.167,0.833-9.167,0.833
	s-9.499,1.772-15.499-5.78c-0.5,0.113-5.333-9.887,8.667-12.22c0.166-0.5,6.666-2.666,18.333,1.667c1.5,0.666,4.166,2.5,4.332,3.5"
	/>
<path fill="#FEFDFD" stroke="#FEFDFD" stroke-miterlimit="10" d="M150.865,184.161c0,0-16-0.667-16.5,0
	c-0.5,0.666,5-11.002,16.5-1.668C151.697,183.827,150.865,184.161,150.865,184.161z"/>
<path stroke="#000000" stroke-miterlimit="10" d="M151.234,151.616c0,0,0.5-11,7.5-14.75c-0.125,0.125,6.125-4.375,8.875,13
	c0.25,15.375,0,13.875,0,13.875s-2.25,9.75-4.375,10.125c-3-2-3-2-3-2s-5.5-3-7.25-2.5c-1.375-5.5-1.375-5.5-1.375-5.5
	s11.875-5.375,12.625-5.875s0.75-0.5,0.75-0.5l-13.25-5.228"/>
<path stroke="#000000" stroke-miterlimit="10" d="M140.75,168.153l1.5-15.978c0,0,0.75-10.522-7.25-14.522c0,1-7-5.25-9.25,13
	c0.75,1.75,13.25,5.5,12.75,5.75s-11,6.5-11,6.5l-1.75,1l3.75,9L140.75,168.153z"/>
<path stroke="#000000" stroke-miterlimit="10" d="M173.697,182.484c0,0-26.666-26.5-57.167,0c-0.166,0-1,0-1,0
	s6.5-7.499,12.667-9.333c0,0,13.667-9,35.667,0.333c0.166-0.167,12.498,9,12.166,9C173.697,182.484,173.697,182.484,173.697,182.484
	z"/>
</svg>
