<?xml version="1.0" encoding="utf-8"?>
<!-- Generator: Adobe Illustrator 16.0.2, SVG Export Plug-In . SVG Version: 6.00 Build 0)  -->
<!DOCTYPE svg PUBLIC "-//W3C//DTD SVG 1.1//EN" "http://www.w3.org/Graphics/SVG/1.1/DTD/svg11.dtd">
<svg version="1.1" id="Layer_1" xmlns="http://www.w3.org/2000/svg" xmlns:xlink="http://www.w3.org/1999/xlink" x="0px" y="0px"
	 width="612px" height="792px" viewBox="0 0 612 792" enable-background="new 0 0 612 792" xml:space="preserve">
<path fill="#0C0C0C" stroke="#831385" stroke-miterlimit="10" d="M162.571,239.026c-12,14.334-6.833,44.834-6.5,44.5
	c-0.667,28.668,35.167,52.996,35.167,52.996s0,0,9.833,5c33.667,31.334,60-2,60-1.666c4.5,0.166,22-14.662,22-14.662
	s0,0,8.667-12.168c22.999-33.166,9.667-65.316,9.667-65.316s0,0-5.167-11.333c28.332,8.167,40.998-11.167,40.998-11.167s0,0,4.5-8.5
	c7.334-14.333-4.332-34.166-4.332-34.166c-5.5-9.5-13.499-30.501-47.5-27.587c-34,2.914-31.333,39.086-31.333,39.086s0,0,3,11.333
	c-28.333-15.333-66-1.332-63.333-1.999s3.667-19.333,3.667-19.333c-10.667-26-25.333-28-31-28.333s-23.667-5.333-43.333,15.667
	s-14.667,38.333-5.333,55c8.705,15.544,36.834,12.242,40.585,11.726c0.271-0.037,0.415-0.059,0.415-0.059"/>
<path fill="#FCFCFC" stroke="#050505" stroke-miterlimit="10" d="M182.806,271.605l-0.452-0.753l-0.862-1.438l-0.186-0.31
	c0,0-19-41.25,16.25-59.25c-0.25,0.5,20.75-7.5,30,14.5c1,0,6-27.75,36.75-11.5c1.25,1.25,27,20.75,10,54.5
	c-1.75,5-2.75,4.25-2.75,4.25s21-19.25,26.875,7.25c-1,10.125-1,10.125-1,10.125s-2.75,18-19.875,34.25
	c0,0.875-15.25,11.875-15.25,11.875l4.75-8.5c0,0-15.875,16.75-18,17.5s-27.875,21.125-55.5-12.5
	c-5.125-5.125-5.125-5.125-5.125-5.125l5,8.875c0,0-31.25-21.125-34.25-43.875c-0.375-0.5-4.625-12.125-2.25-16.75
	c0.247,0.493,8.529-23.973,24.607-2.862c0.213,0.279,0.427,0.566,0.643,0.862L182.806,271.605z"/>
<path stroke="#080808" stroke-miterlimit="10" d="M282.472,280.705c0,0,13.188-7.125,12.688,6.25
	C295.097,286.893,292.535,280.893,282.472,280.705z"/>
<path fill="#0A090A" stroke="#080808" stroke-miterlimit="10" d="M287.885,282.462l0.938,0.49c0,0-9.375,17.635-11,18.26
	c-0.813-0.688-6.042,21.042-24.542,33.875c-0.333,0.5-23.166,21.167-50.333-0.667c0.167,0.333-16.501-12.834-23.667-33.5
	c-6.833-10.167-6.833-10.167-6.833-10.167l-4-7.801c0,0-2.375,0.135-3.875,3.135c0.375,0.125-1.125,1.25-1.125,1.25
	s-0.875-14,11.75-6.125c0.125,0.5-4.625,1.5-4.625,1.5s7.75,20.801,26.5,28.9c-0.125,0.1,36.625,24.85,76.25-9.525
	c0.375,0.125,19.201-26.104,14.163-19.135"/>
<path fill="#9B1C16" stroke="#080808" stroke-miterlimit="10" d="M274.274,305.677c0,0-12.5,8.5-20.25,11.75
	s-34.25,11.75-61.75-5.875c0.25,0.375-9.5-6.125-8.25-5.875s-2.5,2.5,11.25,19s43.75,35,72.75-7.5c0.25-0.5,6.25-9.75,6.25-9.75
	V305.677z"/>
<path fill="#F40808" stroke="#000000" stroke-miterlimit="10" d="M254.765,334.071c0.333,0.333,2.832-12.167-23.334-2.667
	c-0.166,0.333-31.165-15.333-20.499,6.667c0.333,0,6.833,4.5,10.333,5c18,0.167,18,0.167,18,0.167s15.166-6,13.833-7.667
	C254.765,334.071,254.765,334.071,254.765,334.071z"/>
<path fill="#F9F4F4" stroke="#FFFFFF" stroke-miterlimit="10" d="M226.129,335.786c0,0-6.625-0.875-10.688-5.188
	c0,0.125-7.75-2.688,0,5.625c3.25,2.25,3.25,2.25,3.25,2.25s6.188,1.875,6.688,0C225.754,337.974,226.129,335.786,226.129,335.786z"
	/>
<path stroke="#070707" stroke-miterlimit="10" d="M244.882,286.478c0,0,3.667,9.167-6.833,11s-9.168,0.833-9.168,0.833
	s-9.499,1.772-15.499-5.78c-0.5,0.114-5.333-9.887,8.667-12.22c0.166-0.5,6.666-2.666,18.333,1.667c1.5,0.667,4.166,2.5,4.333,3.5"
	/>
<path fill="#FFFDFD" stroke="#FFFDFD" stroke-miterlimit="10" d="M235.919,287.592c0,0-16-0.667-16.5,0s5-11.001,16.5-1.667
	C236.752,287.259,235.919,287.592,235.919,287.592z"/>
<path stroke="#000000" stroke-miterlimit="10" d="M236.289,255.048c0,0,0.5-11,7.5-14.75c-0.125,0.125,6.125-4.375,8.875,13
	c0.25,15.375,0,13.875,0,13.875s-2.25,9.75-4.375,10.125c-3-2-3-2-3-2s-5.5-3-7.25-2.5c-1.375-5.5-1.375-5.5-1.375-5.5
	s11.875-5.375,12.625-5.875s0.75-0.5,0.75-0.5l-13.25-5.228"/>
<path stroke="#000000" stroke-miterlimit="10" d="M225.804,271.585l1.5-15.978c0,0,0.75-10.522-7.25-14.522c0,1-7-5.25-9.25,13
	c0.75,1.75,13.25,5.5,12.75,5.75s-11,6.5-11,6.5l-1.75,1l3.75,9L225.804,271.585z"/>
<path stroke="#000000" stroke-miterlimit="10" d="M258.752,285.916c0,0-26.667-26.5-57.167,0c-0.166,0-1,0-1,0s6.5-7.5,12.667-9.333
	c0,0,13.667-9,35.667,0.333c0.166-0.167,12.499,9,12.166,9C258.752,285.916,258.752,285.916,258.752,285.916z"/>
</svg>
