<?xml version="1.0" encoding="utf-8"?>
<!-- Generator: Adobe Illustrator 16.0.2, SVG Export Plug-In . SVG Version: 6.00 Build 0)  -->
<!DOCTYPE svg PUBLIC "-//W3C//DTD SVG 1.1//EN" "http://www.w3.org/Graphics/SVG/1.1/DTD/svg11.dtd">
<svg version="1.1" id="Layer_1" xmlns="http://www.w3.org/2000/svg" xmlns:xlink="http://www.w3.org/1999/xlink" x="0px" y="0px"
	 width="159px" height="46px" viewBox="0 0 159 46" enable-background="new 0 0 159 46" xml:space="preserve">
<rect x="-36.387" y="-67.418" fill="#F7F7F7" stroke="#F6F5F4" stroke-miterlimit="10" width="2.039" height="1.686"/>
<g>
	<rect x="16.522" y="15.942" fill="#F7F7F7" stroke="#F6F5F4" stroke-miterlimit="10" width="5.687" height="4.637"/>
	<rect x="19.482" y="5.042" fill="#F7F7F7" stroke="#F6F5F4" stroke-miterlimit="10" width="17.406" height="36.869"/>
	<path fill="#F7F7F8" stroke="#F6F5F4" stroke-miterlimit="10" d="M34.515,3.682c0,0-8.802-0.736-9.652,3.694
		c0.118,0.056-0.836,3.136,3.199,6.526c0.058,0.053,5.451,3.233,5.616,5.263c0.105-0.1,0.389,3.86-6.574,2.609
		c0.179,0.11-2.299-0.779-1.852-3.235c-0.107,0-0.39-0.724,1.852-0.833c0.179-0.68,0.179-0.68,0.179-0.68l-9.157-0.097v0.623
		c0,0,2.584,0.1,2.526,1.097c-0.047,0,0,19.958,0,19.958s-2.124,3.181-3.081,3.346c1.463,0.725,1.463,0.725,1.463,0.725
		s4.874-2.61,5.05-5.265c0.166-2.665,0.556-14.255,0.556-14.255h0.836c0,0,6.857,1.94,9.996-2.544
		c0.058-0.044,2.077-4.53-0.509-6.833c-0.047,0.056-8.306-4.321-7.514-6.097c0.104,0.152-0.119-3.125,6.112-2.401
		c-0.048-0.1,2.417,1.097,1.686,2.401c0.06,0.362,0.06,0.362,0.06,0.362l0.732-0.043V4.582C36.039,4.582,35.813,3.726,34.515,3.682z
		"/>
	<path fill="#110947" stroke="#150A47" stroke-miterlimit="10" d="M35.931,4.481c0,0,16.391,7.194,11.894,25.455
		c0,0.206-5.273,19.3-29.522,12.829c-0.223-0.417,5.64-4.464,5.735-5.637c0.084-1.175,0.33-14.399,0.33-14.399
		s13.724,3.125,11.541-6.887c-0.095-0.229-1.262-2.268-1.262-2.268l-4.213-2.501l-3.196-2.5c0,0-0.344-5.088,5.215-3.368
		c0.081-0.075,1.851,1.491,2.359,2.118c0.506,0.624,0.506,0.624,0.506,0.624l0.414-0.076L35.931,4.481z"/>
	<path fill="#F4130D" stroke="#F2150D" stroke-miterlimit="10" d="M32.614,2.596c0,0-21.464-5.317-27.694,13.378
		c0.084,0.154-5.132,17.054,11.199,25.038c-0.344-0.154,2.266,0.394,3.361-3.444c0.166,0.164,0.509-19.87,0.509-19.87
		s0.246-0.78-2.444-0.78c-0.081-0.702-0.081-0.702-0.081-0.702l9.002-0.164l0.178,0.624c0,0-2.62,0.351-2.62,1.373
		c0,0.163,0.931,4.461,6.996,2.588c0,0.075,3.954-2.623,0.626-4.936c-0.166,0.154-11.492-5.538-6.408-10.549
		C25.157,5.152,26.136,2.596,32.614,2.596z"/>
</g>
<text transform="matrix(0.3672 -2.888179e-004 7.844628e-004 1 53.0264 33.0059)" fill="#87771B" font-family="'STIX-Bold'" font-size="32.6757">SAJJAD JAFARI</text>
</svg>
