<?xml version="1.0" encoding="utf-8"?>
<!-- Generator: Adobe Illustrator 16.0.2, SVG Export Plug-In . SVG Version: 6.00 Build 0)  -->
<!DOCTYPE svg PUBLIC "-//W3C//DTD SVG 1.1//EN" "http://www.w3.org/Graphics/SVG/1.1/DTD/svg11.dtd">
<svg version="1.1" id="Layer_1" xmlns="http://www.w3.org/2000/svg" xmlns:xlink="http://www.w3.org/1999/xlink" x="0px" y="0px"
	 width="612px" height="792px" viewBox="0 0 612 792" enable-background="new 0 0 612 792" xml:space="preserve">
<path fill="#16D330" stroke="#E9E9E9" stroke-miterlimit="10" d="M198.135,251.125c0,0,77.898-38.778,11.721,103.014
	c-0.731,1.133-40.495,77.347-127.075,126.565c12.653,14.58,12.653,14.58,12.653,14.58s-3.962,14.688-11.649,16.548
	c-20.489-22.043-20.489-22.043-20.489-22.043s-0.693-4.457,1.499-7.855c36.312-56.785,36.312-56.785,36.312-56.785l0,0
	c0,0,11.011-14.553,9.751,1.479c-25.486,40.509-25.486,40.509-25.486,40.509s85.877-53.394,117.885-118.858
	c0.501-1.281,48.218-86.803,2.721-85.676c-0.595,0.418-13.907,5.465-13.907,5.465S181.909,268.73,198.135,251.125z"/>
</svg>
