<?xml version="1.0" encoding="utf-8"?>
<!-- Generator: Adobe Illustrator 16.0.2, SVG Export Plug-In . SVG Version: 6.00 Build 0)  -->
<!DOCTYPE svg PUBLIC "-//W3C//DTD SVG 1.1//EN" "http://www.w3.org/Graphics/SVG/1.1/DTD/svg11.dtd">
<svg version="1.1" id="Layer_1" xmlns="http://www.w3.org/2000/svg" xmlns:xlink="http://www.w3.org/1999/xlink" x="0px" y="0px"
	 width="612px" height="792px" viewBox="0 0 612 792" enable-background="new 0 0 612 792" xml:space="preserve">
<path fill="#16D330" stroke="#E9E9E9" stroke-miterlimit="10" d="M72.909,250.573c0,0,108.667-74,160.667,79.333
	c0,1.333,19.334,86-93.333,173.333c45.333,5.333,45.333,5.333,45.333,5.333s11.333,14.333-2,20
	c-71.333-7.333-71.333-7.333-71.333-7.333s-7.333-3.333-7.333-7.333c-0.667-66.667-0.667-66.667-0.667-66.667l0,0c0,0,3.333-18,22-4
	c1.333,47.333,1.333,47.333,1.333,47.333s105.686-90.427,84.667-162c-0.667-1.333-16-98-108-72.667
	c-0.667,0.667-21.333,12-21.333,12S62.909,273.906,72.909,250.573z"/>
</svg>
