<svg version="1.1" id="Layer_1" xmlns="http://www.w3.org/2000/svg" xmlns:xlink="http://www.w3.org/1999/xlink" x="0px" y="0px" width="205px" height="51px" viewBox="0 0 205 51" enable-background="new 0 0 205 51" xml:space="preserve">
<path fill="#3CA0D3" d="M44.872,25.594c-2.306,1.356-6.109,3.837-10.343,3.688c-3.304-0.119-4.087-2.436-4.087-4.731
	c5.971,1.608,13.824-0.597,13.824-7.118c0-5.236-3.996-8.404-11.159-8.404c-7.992,0-13.641,4.225-13.641,13.318
	c0,9.644,5.833,13.225,13.824,13.225c4.762,0,8.854-0.914,11.377-2.543C44.721,31.282,44.805,28.441,44.872,25.594 M34.3,14.906
	c1.333,0,2.067,0.688,2.067,2.342c0,4.363-4.041,4.363-6.062,3.904C30.442,17.891,31.544,14.906,34.3,14.906"></path>
<path fill="#3CA0D3" d="M7.334,46.348c0,0-0.93,0.812-2.688,0.812c-2.726,0-4.561-1.549-4.561-4.729
	c0-3.114,1.938-4.728,4.561-4.728c1.344,0,2.598,0.619,2.598,0.619L6.559,40.52c0,0-1.06-0.672-1.977-0.672
	c-0.865,0-1.537,0.555-1.537,2.506c0,1.939,0.581,2.649,1.615,2.649c1.021,0,2.042-0.659,2.042-0.659L7.334,46.348z"></path>
<path fill="#3CA0D3" d="M16.161,43.4c0,2.262-1.59,3.76-4.238,3.76c-2.624,0-4.238-1.498-4.238-3.76c0-2.299,1.614-3.71,4.238-3.71
	C14.571,39.69,16.161,41.102,16.161,43.4 M11.935,45.223c0.97,0,1.189-0.826,1.189-1.759c0-0.943-0.297-1.884-1.267-1.884
	c-0.865,0-1.149,0.656-1.149,1.768C10.708,44.447,11.069,45.223,11.935,45.223"></path>
<path fill="#3CA0D3" d="M27.533,46.927c0.013-0.813,0.065-2.376,0.065-3.489c0-1.095-0.258-1.82-1.085-1.82
	c-0.789,0-1.008,0.88-1.008,1.82c0,1.228,0.052,2.663,0.091,3.489h-3.141c0.014-0.813,0.065-2.376,0.065-3.489
	c0-1.095-0.233-1.82-1.073-1.82c-0.827,0-0.995,0.891-0.995,1.82c0,1.073,0.065,2.639,0.104,3.489h-3.101
	c0,0,0.091-2.828,0.091-5.399c0-0.479-0.013-1.034-0.026-1.603h3.01c-0.013,0.428-0.026,0.84-0.026,1.201
	c0.323-0.827,1.15-1.436,2.339-1.436c1.551,0,2.003,0.739,2.262,1.578c0.413-0.775,1.241-1.578,2.998-1.578
	c1.627,0,2.48,0.997,2.48,2.572c0,1.228,0.052,3.838,0.09,4.664H27.533z"></path>
<path fill="#3CA0D3" d="M37.523,47.16c-1.086,0-1.886-0.608-2.209-1.435c0.038,1.964,0.18,5.052,0.18,5.052s-1.821-0.077-3.269,0
	c0,0,0.129-3.463,0.129-5.439c0-2.583-0.09-5.413-0.09-5.413h3.088c-0.013,0.247-0.116,1.163-0.129,1.355
	c0.232-0.71,0.957-1.59,2.262-1.59c1.925,0,3.23,1.436,3.23,3.724C40.715,45.713,39.449,47.16,37.523,47.16 M36.399,41.591
	c-0.969,0-1.292,0.893-1.292,1.823c0,0.942,0.322,1.82,1.292,1.82c0.866,0,1.202-0.71,1.202-1.82
	C37.601,42.316,37.265,41.591,36.399,41.591"></path>
<path fill="#3CA0D3" d="M46.338,46.927l-0.027-1.396c-0.323,0.724-0.814,1.629-2.61,1.629c-1.202,0-2.145-0.619-2.145-1.833
	c0-2.727,4.535-2.095,4.535-3.051c0-0.452-0.375-0.712-0.969-0.712c-1.24,0-2.867,1.1-2.867,1.1l-0.557-1.822
	c0,0,1.448-1.151,3.799-1.151c2.352,0,3.373,0.983,3.373,2.612c0,1.408,0.245,4.624,0.245,4.624H46.338z M46.234,43.4
	c-0.543,0.401-1.589,0.659-1.589,1.523c0,0.414,0.193,0.57,0.478,0.57C45.769,45.494,46.13,44.474,46.234,43.4"></path>
<path fill="#3CA0D3" d="M56.559,39.821l-0.581,3.048c-0.349-0.179-0.904-0.398-1.435-0.386c-0.619,0-1.072,0.258-1.072,1.525
	c0,0.93,0.052,2.104,0.116,2.918H50.5c0,0,0.103-2.828,0.103-5.399c0-0.479-0.012-1.034-0.025-1.603h2.83
	c-0.013,0.428,0.013,1.552,0,1.913c0.193-0.622,0.775-2.147,2.119-2.147C55.823,39.69,56.172,39.73,56.559,39.821"></path>
<path fill="#3CA0D3" d="M61.406,46.927l-0.026-1.396c-0.323,0.724-0.813,1.629-2.61,1.629c-1.202,0-2.145-0.619-2.145-1.833
	c0-2.727,4.536-2.095,4.536-3.051c0-0.452-0.375-0.712-0.969-0.712c-1.241,0-2.869,1.1-2.869,1.1l-0.556-1.822
	c0,0,1.447-1.151,3.799-1.151c2.351,0,3.372,0.983,3.372,2.612c0,1.408,0.246,4.624,0.246,4.624H61.406z M61.302,43.4
	c-0.543,0.401-1.589,0.659-1.589,1.523c0,0.414,0.194,0.57,0.478,0.57C60.837,45.494,61.199,44.474,61.302,43.4"></path>
<path fill="#3CA0D3" d="M71.396,46.528c-0.504,0.348-1.306,0.632-2.417,0.632c-1.706,0-3.062-0.812-3.062-2.764
	c0-0.738,0.013-2.08,0.025-2.508c-0.671,0.013-1.021,0.013-1.021,0.013l0.039-0.943l3.089-3.255h0.93l0.013,2.222h2.055
	l-0.143,1.924c0,0-0.93,0-1.963-0.011c-0.026,0.877-0.04,2.285-0.04,2.429c0,0.657,0.052,0.994,0.711,0.994
	c0.568,0,0.957-0.258,1.202-0.388L71.396,46.528z"></path>
<path fill="#3CA0D3" d="M79.111,46.371c-0.698,0.505-1.899,0.789-3.308,0.789c-2.248,0-3.89-1.007-3.89-3.723
	c0-2.557,1.59-3.747,3.838-3.747c2.015,0,3.139,0.894,3.139,2.365c0,1.836-2.209,2.455-3.889,2.004c0,0.646,0.219,1.331,1.15,1.331
	s1.782-0.361,2.39-0.686L79.111,46.371z M74.964,43.103c0.567,0.13,1.705,0.13,1.705-1.098c0-0.465-0.207-0.659-0.581-0.659
	C75.312,41.346,75.002,42.186,74.964,43.103"></path>
<path fill="#3CA0D3" d="M87.885,45.327c0,0.476,0.052,0.943,0.142,1.6h-2.984l-0.117-1.201c-0.322,0.826-1.007,1.435-2.377,1.435
	c-1.485,0-2.403-0.956-2.403-2.79c0-1.228,0.051-3.619,0.013-4.445h3.037c-0.013,0.813-0.064,2.378-0.064,3.489
	c0,1.11,0.155,1.82,0.942,1.82c0.776,0,0.879-0.891,0.879-1.82c0-1.071-0.065-2.637-0.103-3.489h3.127
	C87.977,39.925,87.885,42.755,87.885,45.327"></path>
<path fill="#3CA0D3" d="M95.601,39.821l-0.582,3.048c-0.349-0.179-0.904-0.398-1.434-0.386c-0.621,0-1.072,0.258-1.072,1.525
	c0,0.93,0.051,2.104,0.116,2.918h-3.089c0,0,0.104-2.828,0.104-5.399c0-0.479-0.013-1.034-0.026-1.603h2.83
	c-0.013,0.428,0.012,1.552,0,1.913c0.194-0.622,0.774-2.147,2.119-2.147C94.864,39.69,95.214,39.73,95.601,39.821"></path>
<path fill="#3CA0D3" d="M102.27,39.69c1.085,0,1.886,0.608,2.222,1.436c-0.038-1.951-0.193-5.052-0.193-5.052s1.835,0.077,3.282,0
	c0,0-0.13,3.462-0.13,5.453c0,0.916,0,1.873,0.014,2.713c0.025,1.512,0.232,2.687,0.232,2.687h-3.089
	c0-0.231-0.038-1.148-0.038-1.355c-0.232,0.712-0.943,1.589-2.261,1.589c-1.913,0-3.218-1.421-3.218-3.723
	C99.091,41.152,100.358,39.69,102.27,39.69 M103.394,45.261c0.97,0,1.293-0.88,1.293-1.823c0-0.93-0.323-1.82-1.293-1.82
	c-0.865,0-1.188,0.726-1.188,1.82C102.206,44.551,102.528,45.261,103.394,45.261"></path>
<polygon fill="#3CA0D3" points="109.12,37.935 110.954,37.935 110.864,41.785 109.25,41.785 "></polygon>
<path fill="#3CA0D3" d="M116.836,46.927l-0.029-1.396c-0.321,0.724-0.812,1.629-2.608,1.629c-1.201,0-2.145-0.619-2.145-1.833
	c0-2.727,4.535-2.095,4.535-3.051c0-0.452-0.374-0.712-0.97-0.712c-1.24,0-2.867,1.1-2.867,1.1l-0.556-1.822
	c0,0,1.446-1.151,3.798-1.151s3.372,0.983,3.372,2.612c0,1.408,0.246,4.624,0.246,4.624H116.836z M116.729,43.4
	c-0.541,0.401-1.588,0.659-1.588,1.523c0,0.414,0.193,0.57,0.478,0.57C116.265,45.494,116.628,44.474,116.729,43.4"></path>
<path fill="#3CA0D3" d="M126.191,42.082c0,0-1.331-0.672-2.146-0.672c-0.309,0-0.452,0.207-0.452,0.428
	c0,0.8,3.399,0.582,3.399,2.944c0,1.396-1.201,2.378-3.011,2.378c-2.429,0-3.631-1.214-3.631-1.214l0.697-1.565
	c0,0,1.498,1.023,2.532,1.023c0.284,0,0.428-0.17,0.428-0.375c0-0.893-3.181-0.699-3.181-3.024c0-1.538,1.461-2.314,3.102-2.314
	c1.732,0,2.806,0.776,2.806,0.776L126.191,42.082z"></path>
<path fill="#3CA0D3" d="M133.284,42.082c0,0-1.329-0.672-2.145-0.672c-0.309,0-0.451,0.207-0.451,0.428
	c0,0.8,3.398,0.582,3.398,2.944c0,1.396-1.201,2.378-3.011,2.378c-2.429,0-3.63-1.214-3.63-1.214l0.696-1.565
	c0,0,1.499,1.023,2.532,1.023c0.284,0,0.428-0.17,0.428-0.375c0-0.893-3.181-0.699-3.181-3.024c0-1.538,1.462-2.314,3.102-2.314
	c1.732,0,2.806,0.776,2.806,0.776L133.284,42.082z"></path>
<path fill="#3CA0D3" d="M142.925,45.327c0,0.476,0.054,0.943,0.144,1.6h-2.986l-0.114-1.201c-0.324,0.826-1.01,1.435-2.379,1.435
	c-1.485,0-2.402-0.956-2.402-2.79c0-1.228,0.051-3.619,0.014-4.445h3.035c-0.014,0.813-0.064,2.378-0.064,3.489
	c0,1.11,0.154,1.82,0.943,1.82c0.773,0,0.88-0.891,0.88-1.82c0-1.071-0.066-2.637-0.106-3.489h3.128
	C143.016,39.925,142.925,42.755,142.925,45.327"></path>
<path fill="#3CA0D3" d="M150.642,39.821l-0.582,3.048c-0.348-0.179-0.903-0.398-1.435-0.386c-0.619,0-1.073,0.258-1.073,1.525
	c0,0.93,0.053,2.104,0.116,2.918h-3.085c0,0,0.101-2.828,0.101-5.399c0-0.479-0.013-1.034-0.026-1.603h2.83
	c-0.013,0.428,0.014,1.552,0,1.913c0.194-0.622,0.776-2.147,2.12-2.147C149.905,39.69,150.254,39.73,150.642,39.821"></path>
<path fill="#3CA0D3" d="M155.488,46.927l-0.026-1.396c-0.324,0.724-0.813,1.629-2.609,1.629c-1.204,0-2.147-0.619-2.147-1.833
	c0-2.727,4.536-2.095,4.536-3.051c0-0.452-0.374-0.712-0.968-0.712c-1.24,0-2.869,1.1-2.869,1.1l-0.556-1.822
	c0,0,1.448-1.151,3.8-1.151c2.35,0,3.372,0.983,3.372,2.612c0,1.408,0.245,4.624,0.245,4.624H155.488z M155.385,43.4
	c-0.542,0.401-1.589,0.659-1.589,1.523c0,0.414,0.191,0.57,0.478,0.57C154.92,45.494,155.281,44.474,155.385,43.4"></path>
<path fill="#3CA0D3" d="M164.65,46.927c0.012-0.813,0.064-2.376,0.064-3.489c0-1.095-0.233-1.82-1.061-1.82
	c-0.84,0-0.994,0.891-0.994,1.82c0,1.073,0.053,2.639,0.091,3.489h-3.102c0,0,0.091-2.828,0.091-5.399c0-0.479,0-1.034-0.014-1.603
	h3.011c-0.013,0.428-0.024,0.84-0.039,1.201c0.337-0.827,1.15-1.436,2.508-1.436c1.706,0,2.493,1.034,2.493,2.572
	c0,2.171,0.065,3.838,0.09,4.664H164.65z"></path>
<path fill="#3CA0D3" d="M175.131,44.511l0.622,1.86c-0.582,0.298-1.345,0.789-2.767,0.789c-2.262,0-3.903-1.007-3.903-3.723
	c0-2.557,1.589-3.747,3.851-3.747c1.241,0,2.131,0.375,2.611,0.763l-0.595,1.772c-0.516-0.311-0.917-0.518-1.562-0.518
	c-0.866,0-1.19,0.635-1.19,1.729c0,1.113,0.324,1.706,1.19,1.706C174.11,45.144,174.549,44.873,175.131,44.511"></path>
<path fill="#3CA0D3" d="M183.53,46.371c-0.698,0.505-1.899,0.789-3.306,0.789c-2.25,0-3.891-1.007-3.891-3.723
	c0-2.557,1.59-3.747,3.838-3.747c2.015,0,3.139,0.894,3.139,2.365c0,1.836-2.209,2.455-3.889,2.004c0,0.646,0.221,1.331,1.151,1.331
	c0.93,0,1.783-0.361,2.389-0.686L183.53,46.371z M179.383,43.103c0.568,0.13,1.706,0.13,1.706-1.098
	c0-0.465-0.207-0.659-0.582-0.659C179.733,41.346,179.422,42.186,179.383,43.103"></path>
<path fill="#81C627" d="M119.91,34.745c0.815-0.849,1.845-2.076,3.009-3.538c-0.097-3.227-0.207-7.704-0.207-13.04
	c0-5.465-2.802-9.139-8.864-9.139c-4.821,0-7.715,2.159-8.908,5.098c0.045-1.286,0.091-2.756,0.137-4.271h-10.7
	c0.046,2.02,0.046,3.995,0.046,5.694c0,9.139-0.322,19.196-0.322,19.196h11.021c-0.138-3.03-0.321-8.587-0.321-12.399
	c0-3.306,0.552-6.476,3.536-6.476c2.938,0,3.766,2.572,3.766,6.476c0,3.949-0.184,9.504-0.229,12.399H119.91z"></path>
<path fill="#81C627" d="M64.987,34.745c1.558-1.638,3.867-4.606,6.407-7.938l-13.675,0.407l0.092-24.432H46.973
	c0,0,0.229,8.955,0.229,15.937c0,4.96-0.367,16.027-0.367,16.027H64.987z"></path>
<path fill="#3CA0D3" d="M18.152,34.745c1.558-1.638,3.866-4.606,6.407-7.938l-13.675,0.407l0.092-24.432H0.138
	c0,0,0.23,8.955,0.23,15.937C0.368,23.678,0,34.745,0,34.745H18.152z"></path>
<path fill="#81C627" d="M86.421,9.877c-1.082,1.819-2.738,4.05-4.579,6.608c-1.841-2.558-3.497-4.789-4.579-6.608H65.955
	c1.056,1.791,5.005,7.074,9.139,12.355l1.248,1.587c-3.534,4.655-6.887,9.088-8.79,10.95H78.91c0.091-0.093,1.874-2.665,5.64-7.395
	l4.042-5.143c4.133-5.281,8.083-10.587,9.139-12.378L86.421,9.877z"></path>
<path fill="#3CA0D3" d="M159.612,35.347c-2.041,0-3.679-1.609-3.679-3.647c0-2.013,1.638-3.65,3.679-3.65
	c2.01,0,3.649,1.638,3.649,3.65C163.262,33.737,161.622,35.347,159.612,35.347"></path>
<path fill="#3CA0D3" d="M204.943,10.962l-5.611,9.363c-1.241-0.643-3.216-1.424-5.099-1.377c-2.204,0-3.811,0.919-3.811,5.42
	c0,3.305,0.183,7.483,0.412,10.378h-10.977c0,0,0.368-10.057,0.368-19.196c0-1.7-0.046-3.674-0.092-5.694h10.059
	c-0.046,1.515,0.044,5.51,0,6.796c0.688-2.204,2.753-7.623,7.531-7.623C198.78,9.028,203.277,9.627,204.943,10.962"></path>
<path fill="#3CA0D3" d="M174.569,10.327c0-2.592,0.486-4.212,2.876-4.212c1.138,0,2.145,0.272,3.011,0.645
	c1.012-1.157,2.235-2.686,3.577-4.417l0.053-0.155C182.588,0.972,179.793,0,175.904,0c-6.195,0-10.689,3.078-10.689,9.921
	c0,0.851,0.082,1.782,0.163,2.916l-2.958,3.199l-0.161,2.794h3.483v1.173c0,4.011-0.285,14.741-0.285,14.741h9.681
	c-0.082-4.536-0.245-10.852-0.366-15.915h6.235l0.812-6.034h-7.207C174.569,11.501,174.569,10.609,174.569,10.327"></path>
<path fill="#81C627" d="M122.405,34.853h12.195c0.851-1.082,2.237-2.814,4.188-5.146c1.95,2.332,3.337,4.064,4.188,5.146h12.197
	c-2.232-2.113-6.25-7.11-10.425-12.252c4.347-5.208,8.527-10.417,10.17-12.762h-12.07c-1.144,1.579-2.541,3.358-4.06,5.323
	c-1.517-1.965-2.914-3.744-4.06-5.323h-12.067c1.64,2.344,5.82,7.553,10.167,12.762C128.656,27.742,124.638,32.739,122.405,34.853"></path>
<path fill="#3CA0D3" d="M190.077,42.082c0,0-1.332-0.672-2.147-0.672c-0.311,0-0.451,0.207-0.451,0.426
	c0,0.802,3.398,0.584,3.398,2.946c0,1.396-1.201,2.378-3.011,2.378c-2.429,0-3.63-1.214-3.63-1.214l0.696-1.565
	c0,0,1.499,1.023,2.532,1.023c0.284,0,0.428-0.17,0.428-0.375c0-0.893-3.179-0.699-3.179-3.024c0-1.538,1.46-2.314,3.102-2.314
	c1.73,0,2.804,0.776,2.804,0.776L190.077,42.082z"></path>
</svg>